<svg xmlns="http://www.w3.org/2000/svg" version="1.1" xmlns:xlink="http://www.w3.org/1999/xlink" width="369.06" height="499.65"><svg xmlns="http://www.w3.org/2000/svg" viewBox="875.673 1630.563 369.06 499.65">
  <g>
    <path d="M 1132.05 2116.62 C 1102.02 2102.97 1073.46 2080.64 1055.57 2056.6 C 1047.52 2045.75 1036.94 2026.13 1032.78 2014.29 C 1028.08 2000.83 1022.84 1975.78 1022.66 1966.38 C 1022.66 1965.66 1021.13 1967.73 1019.31 1970.9 C 1014.16 1979.67 1003.77 1989.7 995.533 1993.78 C 991.746 1995.58 987.318 1997.39 985.599 1997.66 L 982.522 1998.29 L 986.23 1993.87 C 989.573 1989.79 992.831 1984.55 992.831 1983.11 C 992.831 1982.74 990.749 1984.37 988.122 1986.73 C 979.809 1994.21 966.069 1999.74 955.769 1999.83 L 951.698 1999.83 L 956.218 1996.75 C 960.461 1993.87 969.957 1984.73 967.97 1985.46 C 967.513 1985.64 964.626 1987.08 961.636 1988.71 C 948.623 1995.49 935.6 1997.12 917.349 1994.41 C 910.29 1993.41 909.477 1993.14 911.466 1992.33 C 939.403 1980.75 967.97 1957.8 993.916 1926.16 C 997.16 1922.18 1006.21 1910.16 1014.08 1899.49 C 1021.93 1888.82 1030.79 1877.08 1033.69 1873.54 C 1036.67 1869.93 1038.57 1866.94 1038.04 1866.94 C 1035.87 1866.94 1021.84 1870.74 1014.34 1873.45 C 1008.38 1875.53 1005.48 1876.07 1002.68 1875.72 C 998.342 1875.18 991.475 1870.83 984.328 1864.04 L 979.178 1859.26 L 996.085 1851.57 C 1016.7 1842.27 1021.93 1839.64 1019.22 1840.36 C 1009.91 1842.71 979.627 1847.96 975.558 1847.96 C 968.688 1847.96 963.537 1844.52 958.206 1836.39 C 953.505 1829.34 951.871 1826.26 952.416 1825.73 C 952.692 1825.37 977.01 1822.92 1005.03 1820.48 C 1019.31 1819.22 1019.04 1819.12 996.889 1816.68 C 975.385 1814.42 957.756 1811.17 952.416 1808.64 C 949.702 1807.28 945.546 1803.93 942.478 1800.68 C 936.87 1794.63 925.482 1777.18 926.838 1776.73 C 927.287 1776.55 932.256 1777.63 937.865 1779.16 C 952.692 1783.14 1011.99 1797.43 1012.36 1797.16 C 1012.44 1796.97 1006.66 1794.63 999.325 1792 C 973.846 1782.6 937.233 1768.32 930.899 1765.24 C 927.469 1763.53 923.035 1760.9 921.23 1759.37 C 916.797 1755.67 910.653 1747.62 906.582 1740.3 C 903.333 1734.33 896.645 1717.42 897.726 1717.97 C 898.088 1718.15 907.757 1722.84 919.155 1728.54 C 930.632 1734.15 951.154 1744.08 964.808 1750.5 C 978.452 1757.02 997.809 1766.33 1007.74 1771.31 C 1017.69 1776.18 1025.01 1779.52 1024.01 1778.8 C 1023.03 1777.99 1011.81 1771.11 999.17 1763.53 C 967.694 1744.72 937.415 1725.83 919.786 1713.9 C 903.151 1702.78 898.719 1698.17 892.575 1685.69 C 887.149 1674.67 882.543 1655.77 882.543 1644.29 L 882.543 1639.86 L 891.314 1648.18 C 914.81 1670.41 951.698 1698.54 996.443 1728.18 C 1014.53 1740.21 1026.27 1747.62 1067.22 1773.29 C 1088.83 1786.76 1097.33 1793.27 1102.21 1799.95 C 1106.46 1805.75 1119.84 1827.35 1124.18 1835.31 C 1125.63 1837.93 1126.98 1839.83 1127.24 1839.56 C 1127.53 1839.29 1126.61 1834.5 1125.34 1828.97 C 1124.08 1823.55 1123.01 1818.58 1123.01 1818.12 C 1123.01 1817.69 1128.41 1817.14 1135.84 1817.04 L 1148.67 1816.77 L 1142.98 1813.25 C 1139.91 1811.35 1137.46 1809.63 1137.74 1809.46 C 1138.19 1808.99 1164.95 1812.44 1169.56 1813.61 C 1175.53 1815.06 1175.69 1814.88 1173.17 1810 C 1170.19 1804.02 1170.27 1803.13 1173.89 1805.84 C 1175.42 1807.01 1181.48 1810.54 1187.18 1813.69 C 1202.45 1821.93 1211.78 1828.43 1218.19 1835.22 C 1224.88 1842.36 1227.87 1848.05 1227.87 1853.93 C 1227.87 1857.27 1228.4 1858.71 1231.03 1861.88 C 1237.89 1870.29 1239.8 1879.96 1235.72 1886.02 C 1233.83 1888.82 1226.69 1894.96 1225.24 1894.96 C 1224.88 1894.96 1224.78 1893.61 1224.97 1891.9 C 1225.7 1885.83 1220.45 1880.14 1209.61 1875.09 C 1185.2 1863.78 1147.23 1875.81 1119.84 1903.55 C 1101.13 1922.54 1088.11 1948.84 1082.68 1978.59 C 1080.77 1988.89 1080.43 2016.83 1082.13 2024.69 C 1082.68 2027.12 1082.95 2029.3 1082.77 2029.48 C 1082.32 2029.93 1076 2014.19 1073.19 2005.88 C 1067.5 1988.54 1066.6 1981.66 1066.6 1956.9 C 1066.6 1932.58 1067.5 1925.61 1072.83 1908.71 C 1074.01 1904.92 1074.83 1901.66 1074.63 1901.47 C 1074.1 1900.94 1070.56 1909.52 1066.95 1920.28 C 1055.29 1954.98 1055.01 1993.95 1066.14 2025.68 C 1078.33 2060.4 1103.66 2093.22 1135.2 2115.09 C 1145.96 2122.5 1145.6 2122.67 1132.05 2116.62 Z M 1212.93 1853.74 C 1214.12 1853.29 1213.85 1852.84 1211.6 1851.48 C 1210.06 1850.49 1208.06 1848.49 1207.25 1846.96 C 1202.73 1838.65 1200.2 1837.74 1201.01 1844.43 C 1201.66 1849.76 1203.44 1852.12 1207.43 1853.29 C 1211.14 1854.38 1211.22 1854.38 1212.93 1853.74 Z" style="stroke-width: 0.968;" fill="black"></path>
    <path d="M 1109.9 1789.93 C 1106.36 1784.95 1098.32 1778.99 1076.89 1765.06 C 1055.65 1751.33 1054.93 1750.7 1055.57 1747.35 C 1056.28 1743.73 1060.62 1734.96 1061.62 1734.96 C 1062.79 1734.96 1075 1743.91 1081.68 1749.6 C 1084.49 1752.05 1086.85 1753.78 1086.85 1753.41 C 1086.85 1753.13 1083.85 1749.15 1080.24 1744.54 C 1069.39 1731.16 1067.59 1728.1 1068.14 1724.38 C 1068.57 1721.59 1075.45 1708.75 1076.45 1708.75 C 1076.73 1708.75 1077.98 1710.91 1079.24 1713.55 C 1082.13 1719.23 1095.79 1742.19 1096.34 1742.19 C 1096.61 1742.19 1095.88 1740.03 1094.8 1737.5 C 1090.18 1726.19 1085.11 1711.46 1084.04 1706.49 C 1083.05 1701.7 1083.13 1700.69 1084.49 1697.9 C 1086.66 1693.64 1095.24 1680.72 1095.97 1680.72 C 1096.23 1680.72 1097.23 1684.25 1098.14 1688.68 C 1100.22 1699.63 1109.06 1734.69 1110.79 1739.03 C 1111.51 1741.02 1111.97 1741.65 1111.8 1740.38 C 1110.26 1731.98 1107.46 1709.48 1106.73 1699.16 C 1105.36 1679.74 1106.56 1673.67 1113.42 1665 C 1116.3 1661.29 1128.52 1650.62 1129.06 1651.25 C 1129.25 1651.43 1128.69 1655.41 1127.88 1660.02 C 1126.69 1666.08 1126.26 1673.32 1126.26 1685.24 C 1126.26 1704.05 1127.15 1710.74 1133.03 1735.41 C 1135.11 1743.91 1136.83 1753.22 1136.92 1756.2 C 1137.01 1763.08 1135.03 1766.69 1124.45 1778.26 C 1120.19 1782.96 1115.96 1788.39 1115.14 1790.2 C 1114.24 1792.09 1113.35 1793.63 1113.06 1793.63 C 1112.78 1793.63 1111.43 1791.92 1109.9 1789.93 Z" style="stroke-width: 0.968;" fill="black"></path>
  </g>
</svg><style>@media (prefers-color-scheme: light) { :root { filter: none; } }
@media (prefers-color-scheme: dark) { :root { filter: invert(100%); } }
</style></svg>