<svg width="1472" height="312" viewBox="0 0 1472 312" fill="none" xmlns="http://www.w3.org/2000/svg">
<g clip-path="url(#clip0_210_655)">
<path d="M1472 4.93457V54.4737H1373.47V305.61H1320.6V54.4737H1222.07V4.93457H1472Z" fill="white"/>
<path d="M238.751 221.323C239.044 235.254 235.901 249.043 229.6 261.471C223.54 272.879 214.849 282.679 204.246 290.059C193.101 297.684 180.627 303.156 167.47 306.194C153.072 309.566 138.325 311.217 123.538 311.113C76.9577 310.941 36.0879 296.217 2.13293 267.182L0 265.393L2.78658 258.959L8.22212 246.54L23.7375 210.865L36.0535 223.628C40.7637 228.479 45.9763 232.815 51.6033 236.564C58.0884 240.902 65.0058 244.557 72.2446 247.469C80.174 250.714 88.4005 253.18 96.8077 254.831C105.941 256.625 115.228 257.512 124.536 257.48C143.801 257.48 158.628 254.246 168.571 247.882C176.724 242.687 180.508 235.119 180.508 224.041C180.665 219.101 179.501 214.208 177.137 209.867C174.341 205.612 170.581 202.076 166.162 199.547C158.966 195.408 151.281 192.184 143.285 189.949C140.739 189.192 138.09 188.435 135.269 187.678L137.953 181.486L140.636 175.293L152.436 148.219L155.119 142.026L157.837 135.834C162.86 137.233 167.676 138.678 172.286 140.169C184.495 144.002 196.084 149.588 206.688 156.751C216.609 163.556 224.769 172.624 230.495 183.206C236.344 195.038 239.181 208.131 238.751 221.323Z" fill="#A62122"/>
<path d="M221.894 37.3415L219.107 43.7747L213.293 57.1915L198.122 91.9377L185.978 78.1768C178.751 70.3676 169.83 64.3185 159.901 60.4941C147.485 55.5624 134.211 53.1533 120.854 53.4073C100.213 53.4073 84.7664 57.0539 76.4067 63.9343C72.5244 67.115 69.4523 71.1716 67.4428 75.7706C65.4333 80.3697 64.5439 85.3799 64.8476 90.3896C64.6267 94.9775 65.5364 99.5493 67.4966 103.703C69.7222 107.262 72.7802 110.225 76.4067 112.338C82.8766 116.088 89.8184 118.958 97.048 120.87C101.383 122.143 106.061 123.416 111.256 124.689L108.538 130.915L105.855 137.142L94.0894 163.769L91.4061 169.962L88.7227 176.154C81.1886 174.159 74.205 172.06 67.875 169.962C56.5266 166.352 45.7872 161.051 36.0186 154.24C26.8354 147.768 19.391 139.13 14.3452 129.092C9.33191 118.21 6.88381 106.323 7.18955 94.3458C6.97104 80.3474 9.96011 66.4847 15.9277 53.8201C21.6571 41.8029 30.2444 31.3729 40.9381 23.443C51.8333 15.4825 64.0677 9.54009 77.0604 5.89787C91.4222 1.86648 106.282 -0.114049 121.198 0.0150936C139.966 -0.248197 158.623 2.93513 176.242 9.40689C192.231 15.5565 207.036 24.4254 220.001 35.6213L221.894 37.3415Z" fill="#A62122"/>
<path d="M861.292 5.31299V306.022H818.496L656.909 104.563V306.022H603.964V4.93457H644.042L808.347 210.556V5.31299H861.292Z" fill="white"/>
<path d="M527.006 256.449V306.022H315.295V4.93457H523.462V54.5081H368.24V128.37H503.578V176.773H368.24V256.449H527.006Z" fill="white"/>
<path d="M1161.9 256.449V306.022H950.188V4.93457H1158.39V54.5081H1003.13V128.37H1138.51V176.773H1003.13V256.449H1161.9Z" fill="white"/>
</g>
<defs>
<clipPath id="clip0_210_655">
<rect width="1472" height="312" fill="white"/>
</clipPath>
</defs>
</svg>
