<?xml version="1.0" encoding="utf-8"?>
<svg xmlns="http://www.w3.org/2000/svg" viewBox="0 0 500 198">
  <g>
    <path id="pynmDZJHl" d="M 102.606 195.867 C 90.263 190.259 78.515 181.086 71.155 171.208 C 67.846 166.751 63.496 158.692 61.786 153.827 C 59.853 148.294 57.697 138.006 57.623 134.144 C 57.623 133.847 56.991 134.701 56.247 136.001 C 54.128 139.603 49.853 143.726 46.47 145.397 C 44.908 146.14 43.087 146.882 42.38 146.994 L 41.116 147.254 L 42.641 145.434 C 44.016 143.763 45.354 141.609 45.354 141.014 C 45.354 140.866 44.499 141.534 43.421 142.5 C 40.001 145.582 34.35 147.848 30.112 147.885 L 28.439 147.885 L 30.298 146.622 C 32.045 145.434 35.949 141.683 35.131 141.98 C 34.945 142.054 33.756 142.649 32.529 143.317 C 27.175 146.102 21.822 146.771 14.313 145.657 C 11.413 145.248 11.078 145.137 11.896 144.803 C 23.383 140.049 35.131 130.616 45.801 117.617 C 47.139 115.983 50.857 111.044 54.091 106.662 C 57.325 102.279 60.968 97.451 62.158 96.003 C 63.385 94.518 64.166 93.292 63.943 93.292 C 63.05 93.292 57.288 94.852 54.202 95.966 C 51.749 96.82 50.559 97.043 49.407 96.894 C 47.622 96.672 44.797 94.889 41.86 92.104 L 39.741 90.135 L 46.693 86.979 C 55.169 83.153 57.325 82.076 56.21 82.374 C 52.381 83.339 39.927 85.493 38.254 85.493 C 35.429 85.493 33.309 84.082 31.116 80.739 C 29.183 77.843 28.514 76.58 28.737 76.357 C 28.848 76.209 38.849 75.206 50.373 74.203 C 56.247 73.683 56.136 73.646 47.027 72.643 C 38.18 71.715 30.93 70.378 28.737 69.338 C 27.622 68.781 25.911 67.407 24.647 66.07 C 22.343 63.582 17.658 56.414 18.216 56.228 C 18.402 56.154 20.447 56.6 22.751 57.231 C 28.848 58.865 53.236 64.733 53.385 64.622 C 53.422 64.547 51.042 63.582 48.031 62.505 C 37.548 58.642 22.491 52.775 19.889 51.512 C 18.476 50.805 16.655 49.728 15.911 49.096 C 14.089 47.574 11.562 44.268 9.889 41.26 C 8.55 38.809 5.799 31.864 6.245 32.087 C 6.394 32.162 10.372 34.093 15.056 36.432 C 19.777 38.735 28.216 42.82 33.83 45.457 C 39.444 48.131 47.399 51.958 51.489 54 C 55.578 56.006 58.589 57.38 58.18 57.083 C 57.771 56.748 53.161 53.926 47.957 50.805 C 35.02 43.08 22.566 35.318 15.316 30.416 C 8.476 25.848 6.654 23.954 4.126 18.829 C 1.896 14.298 0 6.536 0 1.82 L 0 0 L 3.606 3.417 C 13.272 12.553 28.439 24.103 46.842 36.284 C 54.277 41.223 59.11 44.268 75.95 54.817 C 84.835 60.351 88.33 63.025 90.337 65.773 C 92.085 68.15 97.587 77.026 99.371 80.294 C 99.966 81.371 100.524 82.151 100.635 82.039 C 100.747 81.928 100.375 79.96 99.855 77.694 C 99.334 75.466 98.888 73.423 98.888 73.238 C 98.888 73.052 101.119 72.829 104.167 72.792 L 109.446 72.681 L 107.104 71.232 C 105.84 70.452 104.836 69.747 104.948 69.672 C 105.134 69.487 116.138 70.898 118.034 71.381 C 120.487 71.975 120.562 71.901 119.521 69.895 C 118.294 67.444 118.331 67.073 119.818 68.187 C 120.45 68.67 122.941 70.118 125.283 71.418 C 131.566 74.797 135.395 77.471 138.034 80.257 C 140.785 83.191 142.012 85.53 142.012 87.944 C 142.012 89.318 142.235 89.912 143.313 91.212 C 146.139 94.666 146.919 98.64 145.246 101.128 C 144.466 102.279 141.529 104.805 140.934 104.805 C 140.785 104.805 140.748 104.248 140.822 103.542 C 141.12 101.054 138.964 98.714 134.503 96.634 C 124.465 91.992 108.851 96.932 97.587 108.333 C 89.891 116.132 84.538 126.939 82.307 139.158 C 81.527 143.391 81.378 154.867 82.084 158.098 C 82.307 159.101 82.419 159.992 82.345 160.066 C 82.159 160.252 79.556 153.79 78.404 150.373 C 76.062 143.243 75.69 140.42 75.69 130.244 C 75.69 120.254 76.062 117.395 78.255 110.45 C 78.739 108.89 79.073 107.553 78.999 107.479 C 78.776 107.256 77.326 110.784 75.839 115.203 C 71.043 129.465 70.932 145.471 75.504 158.506 C 80.523 172.767 90.932 186.249 103.907 195.236 C 108.331 198.281 108.182 198.356 102.606 195.867 Z M 135.878 87.87 C 136.361 87.684 136.25 87.498 135.32 86.941 C 134.688 86.533 133.871 85.716 133.536 85.084 C 131.677 81.668 130.636 81.297 130.971 84.045 C 131.231 86.236 131.975 87.201 133.61 87.684 C 135.135 88.13 135.172 88.13 135.878 87.87 Z" fill="currentColor"/>
    <path id="prNyE1wa" d="M 133.462 171.839 C 130.004 171.133 126.844 169.871 126.249 168.942 C 125.952 168.459 125.617 166.417 125.469 163.854 C 125.357 161.515 125.134 159.212 125.023 158.766 C 124.874 158.024 124.985 157.912 125.803 157.912 C 126.398 157.912 126.881 158.172 126.993 158.581 C 128.517 163.037 131.566 166.937 134.763 168.534 C 142.384 172.248 150.451 167.16 148.555 159.843 C 147.663 156.315 145.767 154.57 138.183 150.225 C 130.116 145.62 127.105 141.832 127.03 136.298 C 126.956 129.019 131.491 124.117 139.41 123.002 C 143.499 122.408 151.009 123.745 152.682 125.379 C 152.942 125.639 153.128 127.533 153.239 130.244 C 153.314 134.033 153.276 134.701 152.756 134.812 C 152.384 134.887 151.938 134.255 151.343 132.844 C 150.86 131.73 149.745 129.984 148.852 128.982 C 144.577 124.265 136.993 124.265 134.503 129.056 C 133.499 130.95 133.424 134.144 134.317 135.852 C 135.246 137.635 138.443 140.309 141.975 142.203 C 149.336 146.177 153.091 149.333 154.763 152.973 C 155.99 155.721 155.916 160.698 154.578 163.557 C 153.351 166.194 150.786 168.979 148.406 170.279 C 144.726 172.285 138.778 172.916 133.462 171.839 Z" fill="currentColor"/>
    <path id="p11L6H60OL" d="M 286.256 171.95 C 276.553 170.576 268.858 164.671 265.921 156.39 C 264.731 153.047 264.322 146.659 265.066 142.946 C 266.404 136.038 271.572 129.279 277.817 126.234 C 282.39 124.005 286.033 123.225 291.833 123.188 C 297.483 123.188 301.015 123.819 305.513 125.676 L 308.19 126.791 L 308.227 129.242 C 308.227 130.616 308.339 132.956 308.487 134.404 C 308.748 136.966 308.599 137.486 307.595 137.486 C 307.521 137.486 306.926 136.446 306.294 135.184 C 302.911 128.462 295.848 124.711 288.821 125.899 C 280.196 127.385 274.657 134.59 274.1 145.137 C 273.542 155.35 278.077 164.189 285.81 167.865 C 288.561 169.202 288.821 169.239 292.762 169.239 C 296.591 169.239 297 169.165 299.379 168.051 C 302.502 166.565 304.993 164.077 306.852 160.549 C 307.818 158.655 308.45 157.912 308.971 157.912 C 309.863 157.912 309.863 157.838 308.785 163.483 C 307.781 168.905 307.707 169.054 302.539 170.688 C 297.446 172.285 291.758 172.73 286.256 171.95 Z" fill="currentColor"/>
    <path id="p16GbubQhL" d="M 425.48 171.839 C 422.32 171.245 419.012 170.056 417.971 169.091 C 417.19 168.348 417.041 167.531 416.521 161.032 C 416.298 158.358 416.372 157.987 416.967 157.764 C 417.748 157.467 417.971 157.689 418.603 159.398 C 420.759 165.117 425.183 169.091 430.09 169.685 C 437.525 170.539 442.581 163.817 439.049 157.689 C 437.748 155.387 436.41 154.236 432.283 151.822 C 423.993 146.957 420.982 144.431 419.346 140.977 C 418.268 138.601 417.971 135.147 418.714 132.621 C 420.796 125.602 427.339 122 436.298 123.04 C 439.384 123.374 443.288 124.562 444.105 125.379 C 444.366 125.639 444.589 127.533 444.663 130.244 C 444.812 134.33 444.775 134.701 444.143 134.701 C 443.659 134.701 443.213 134.033 442.581 132.51 C 440.834 128.239 436.93 125.491 432.544 125.491 C 430.202 125.491 427.934 126.345 426.707 127.719 C 425.703 128.833 424.923 131.024 424.923 132.733 C 424.923 136.335 427.413 139.009 434.142 142.686 C 441.094 146.474 444.626 149.482 446.224 153.01 C 447.451 155.721 447.377 160.735 446.076 163.483 C 442.767 170.428 434.923 173.584 425.48 171.839 Z" fill="currentColor"/>
    <path id="p11heyMigc" d="M 356.035 171.43 C 352.652 170.836 350.831 169.982 349.232 168.237 C 348.08 167.048 345.18 162.666 341.462 156.612 C 338.154 151.227 336.183 149.742 332.392 149.742 L 331.239 149.742 L 331.239 157.912 C 331.239 168.571 331.462 169.165 335.7 169.685 C 337.187 169.871 337.559 170.056 337.559 170.576 C 337.559 171.245 337.039 171.282 327.336 171.282 C 317.372 171.282 317.112 171.282 317.112 170.539 C 317.112 169.945 317.372 169.796 318.227 169.796 C 319.863 169.796 321.796 168.905 322.391 167.865 C 322.763 167.197 322.874 163.074 322.874 147.699 C 322.874 132.324 322.763 128.202 322.391 127.533 C 321.796 126.494 319.863 125.602 318.227 125.602 C 317.372 125.602 317.112 125.454 317.112 124.859 C 317.112 124.117 317.372 124.117 329.12 124.117 C 339.827 124.117 341.462 124.191 343.99 124.822 C 350.162 126.419 353.322 130.17 353.322 136.001 C 353.359 140.94 350.942 144.431 345.812 146.845 L 343.47 147.959 L 344.92 149.222 C 345.701 149.89 348.563 153.679 351.24 157.615 C 357.597 166.937 359.604 169.054 362.653 169.834 C 364.065 170.205 364.326 170.391 364.326 171.133 C 364.326 171.988 364.214 172.025 361.649 171.988 C 360.162 171.988 357.634 171.728 356.035 171.43 Z M 339.678 146.102 C 345.329 143.206 346.407 134.181 341.723 129.353 C 339.827 127.385 337.894 126.716 334.213 126.716 C 331.016 126.716 331.239 125.899 331.239 137.189 L 331.239 147.254 L 334.696 147.068 C 337.187 146.919 338.526 146.659 339.678 146.102 Z" fill="currentColor"/>
    <path id="pzBAZ60eb" d="M 174.244 171.393 C 165.098 171.282 164.281 171.208 164.392 170.651 C 164.466 170.242 165.061 169.908 165.991 169.722 C 168.37 169.239 169.411 168.682 169.857 167.717 C 170.415 166.454 170.452 128.462 169.857 127.385 C 169.374 126.494 167.366 125.602 165.805 125.602 C 164.95 125.602 164.689 125.454 164.689 124.859 C 164.689 124.154 164.95 124.117 174.541 124.117 C 183.909 124.117 184.393 124.154 184.393 124.822 C 184.393 125.379 184.021 125.565 182.497 125.751 C 179.783 126.122 179.002 127.051 178.63 130.207 C 178.296 133.438 178.816 146.399 179.262 146.399 C 180.266 146.399 196.029 130.059 196.363 128.648 C 196.698 127.385 195.992 126.382 194.467 125.974 C 193.352 125.676 192.943 125.379 192.943 124.859 C 192.943 124.154 193.241 124.117 201.681 124.117 C 209.934 124.117 210.417 124.154 210.417 124.785 C 210.417 125.342 209.934 125.565 207.815 125.936 C 204.06 126.605 202.09 128.09 193.761 136.521 L 186.586 143.763 L 196.029 154.496 C 201.197 160.401 205.993 165.748 206.737 166.38 C 208.484 167.902 211.198 169.314 213.019 169.611 C 214.097 169.796 214.506 170.056 214.506 170.539 C 214.506 170.911 214.246 171.319 213.949 171.43 C 213.614 171.542 210.826 171.468 207.703 171.245 C 204.097 170.985 200.49 170.948 197.702 171.171 C 193.352 171.468 193.315 171.468 193.315 170.688 C 193.315 170.131 193.612 169.796 194.319 169.611 C 197.033 168.942 196.921 167.717 193.798 164.003 C 190.341 159.918 182.72 151.413 180.675 149.371 L 179.002 147.699 L 178.891 156.984 C 178.854 162.109 178.891 166.64 179.002 167.085 C 179.337 168.422 180.675 169.388 182.608 169.648 C 184.17 169.871 184.393 170.019 184.393 170.762 C 184.393 171.245 184.356 171.616 184.318 171.579 C 184.244 171.505 179.709 171.43 174.244 171.393 Z" fill="currentColor"/>
    <path id="pxCkOZdzH" d="M 226.403 170.539 C 226.403 169.945 226.663 169.796 227.518 169.796 C 229.042 169.796 231.533 168.757 231.979 167.902 C 232.202 167.531 232.351 163.483 232.351 158.655 L 232.351 150.039 L 226.923 141.089 C 218.596 127.311 218.075 126.716 214.506 125.936 C 213.057 125.639 212.648 125.379 212.722 124.934 C 212.834 124.377 213.874 124.302 222.611 124.191 C 232.165 124.117 232.351 124.117 232.351 124.859 C 232.351 125.417 232.091 125.602 231.31 125.602 C 229.674 125.602 228.522 126.605 228.782 127.868 C 228.894 128.425 231.31 132.844 234.173 137.672 L 239.34 146.399 L 241.013 143.726 C 247.147 133.735 249.452 129.465 249.452 128.053 C 249.452 126.976 248.411 126.196 246.589 125.788 C 245.697 125.602 245.363 125.342 245.363 124.822 C 245.363 124.154 245.734 124.117 253.17 124.117 C 260.568 124.117 260.976 124.154 260.976 124.822 C 260.976 125.342 260.605 125.565 259.415 125.751 C 255.214 126.419 253.467 128.499 244.545 143.391 L 240.901 149.482 L 240.901 158.135 C 240.901 163.706 241.05 167.122 241.31 167.68 C 241.831 168.794 242.797 169.351 244.991 169.722 C 246.143 169.908 246.701 170.205 246.775 170.651 C 246.887 171.245 246.143 171.282 236.663 171.282 C 226.663 171.282 226.403 171.282 226.403 170.539 Z" fill="currentColor"/>
    <path id="paEeHKZ0w" d="M 368.787 170.576 C 368.787 170.056 369.159 169.834 370.311 169.648 C 372.281 169.314 373.843 168.497 374.438 167.457 C 375.144 166.231 375.144 128.759 374.438 127.533 C 373.843 126.494 371.91 125.602 370.274 125.602 C 369.419 125.602 369.159 125.454 369.159 124.859 C 369.159 124.117 369.419 124.117 386.817 124.117 L 404.476 124.117 L 404.476 125.714 C 404.476 126.568 404.587 128.907 404.736 130.913 L 404.959 134.515 L 404.03 134.515 C 403.175 134.515 403.026 134.33 402.84 132.881 C 402.543 131.024 401.427 129.205 399.903 128.053 C 398.937 127.348 398.267 127.273 391.055 127.162 L 383.285 127.051 L 383.285 136.372 L 383.285 145.731 L 389.159 145.582 C 394.029 145.471 395.256 145.322 396.074 144.765 C 397.189 144.06 398.156 142.129 398.156 140.643 C 398.156 139.975 398.342 139.715 398.899 139.715 C 399.606 139.715 399.643 139.975 399.717 145.1 C 399.866 154.793 399.903 154.347 399.197 154.496 C 398.751 154.57 398.528 154.236 398.342 153.159 C 398.044 151.227 396.892 149.445 395.702 148.999 C 395.182 148.776 392.171 148.628 389.011 148.628 L 383.285 148.628 L 383.285 157.318 C 383.285 168.682 382.542 167.717 391.427 167.865 C 399.643 168.014 401.465 167.642 403.881 165.228 C 404.736 164.337 405.851 162.703 406.335 161.515 C 407.041 159.806 407.376 159.398 408.082 159.398 C 408.565 159.398 408.937 159.435 408.937 159.509 C 408.937 159.583 408.454 161.775 407.859 164.449 C 407.264 167.085 406.706 169.611 406.632 170.056 L 406.52 170.873 L 387.672 171.096 C 369.382 171.282 368.787 171.282 368.787 170.576 Z" fill="currentColor"/>
    <path id="p10GHopWiS" d="M 466.56 170.613 C 466.56 170.056 467.043 169.834 468.865 169.499 C 473.028 168.719 472.694 170.613 472.805 147.328 L 472.88 127.088 L 468.716 127.088 C 463.214 127.125 459.608 127.608 458.418 128.499 C 457.34 129.279 455.444 132.473 455.407 133.513 C 455.407 133.921 455.11 134.144 454.478 134.144 C 453.697 134.144 453.548 133.995 453.734 133.327 C 453.808 132.844 454.18 130.133 454.515 127.273 C 454.849 124.414 455.184 122 455.258 121.888 C 455.37 121.814 455.667 121.888 455.927 122.074 C 458.493 123.968 458.307 123.931 464.701 124.191 C 472.917 124.488 490.575 124.488 494.144 124.191 C 496.226 123.968 497.304 123.708 498.122 123.077 C 498.754 122.631 499.423 122.26 499.646 122.26 C 499.869 122.26 500.018 124.339 500.018 128.202 L 500.018 134.144 L 499.126 134.144 C 498.382 134.144 498.196 133.921 497.973 132.658 C 497.825 131.841 497.379 130.653 496.933 129.984 C 495.52 127.868 494.256 127.533 487.378 127.385 L 481.244 127.273 L 481.133 144.914 C 481.058 154.607 481.133 163.632 481.244 164.931 C 481.579 168.125 482.657 169.239 485.631 169.611 C 487.378 169.834 487.75 170.019 487.75 170.576 C 487.75 171.245 487.304 171.282 477.155 171.282 C 467.155 171.282 466.56 171.245 466.56 170.613 Z" fill="currentColor"/>
    <path id="phD2LlU9h" d="M 93.497 61.651 C 92.048 59.608 88.739 57.157 79.928 51.438 C 71.192 45.791 70.894 45.531 71.155 44.157 C 71.452 42.672 73.237 39.069 73.645 39.069 C 74.129 39.069 79.147 42.746 81.899 45.086 C 83.051 46.088 84.018 46.794 84.018 46.645 C 84.018 46.534 82.791 44.9 81.304 43.006 C 76.843 37.509 76.099 36.247 76.322 34.724 C 76.508 33.573 79.333 28.299 79.742 28.299 C 79.854 28.299 80.374 29.19 80.895 30.267 C 82.084 32.607 87.698 42.04 87.921 42.04 C 88.033 42.04 87.735 41.149 87.289 40.109 C 85.393 35.467 83.311 29.413 82.865 27.371 C 82.456 25.402 82.493 24.994 83.051 23.843 C 83.943 22.097 87.475 16.786 87.772 16.786 C 87.884 16.786 88.293 18.235 88.665 20.055 C 89.52 24.548 93.163 38.958 93.869 40.74 C 94.167 41.557 94.352 41.817 94.278 41.297 C 93.646 37.844 92.494 28.596 92.196 24.363 C 91.639 16.378 92.122 13.89 94.947 10.324 C 96.137 8.802 101.156 4.419 101.379 4.679 C 101.453 4.754 101.23 6.388 100.895 8.282 C 100.412 10.77 100.226 13.741 100.226 18.643 C 100.226 26.368 100.598 29.116 103.014 39.255 C 103.87 42.746 104.576 46.571 104.613 47.797 C 104.65 50.619 103.832 52.106 99.483 56.86 C 97.735 58.791 95.988 61.019 95.654 61.762 C 95.282 62.542 94.91 63.173 94.799 63.173 C 94.687 63.173 94.129 62.468 93.497 61.651 Z" fill="currentColor"/>
  </g>
</svg>